<?xml version="1.0" encoding="UTF-8"?>
<svg id="Layer_2" data-name="Layer 2" xmlns="http://www.w3.org/2000/svg" viewBox="0 0 626.99 162.6">
  <defs>
    <style>
      .cls-1 {
        fill: #0d0d0d;
      }

      .cls-2 {
        fill: #0033e7;
      }
    </style>
  </defs>
  <g id="Layer_1-2" data-name="Layer 1">
    <g>
      <path class="cls-2" d="M73.65,40.39s-17.17-10.22-25.34-1.84c-8.17,8.38-.41,11.44-.41,27.38s-6.33,14.71-1.23,30.65c5.11,15.94,7.15,26.57,7.15,26.57l-2.25,1.84s-13.9-28.81-13.9-41.69,3.27-6.74-1.63-26.16c-4.9-19.41,1.02-28,15.53-28s22.07,11.24,22.07,11.24Z"/>
      <path class="cls-2" d="M55.87,50.2s4.5,5.11,14.51,3.88c10.01-1.23,18.8-11.03,18.8-11.03,0,0,6.23-7.46,9.4-4.29s-4.29,20.44-4.29,32.49,9.6,15.53.41,45.57c0,0-1.84-29.84-21.66-32.29,0,0,15.12,7.36,15.12,26.57s8.38,23.7,8.38,23.7c0,0,1.63-7.36,7.97-22.07,6.33-14.71,3.47-33.1,2.45-37.4s-1.84-12.47,3.07-25.75c4.9-13.28-3.47-23.91-14.51-23.91s-12.47,8.58-15.53,13.28-4.9,10.42-24.11,11.24Z"/>
      <path class="cls-2" d="M74.47,94.14s-1.43-6.95-10.01-6.95-11.03,16.35-11.65,24.73l6.95-9.81s0-11.44,6.54-11.44,8.17,3.47,8.17,3.47Z"/>
      <path class="cls-1" d="M18.27,83.92S.7,40.19,21.74,21.8s47.21-1.02,55.38-8.79c0,0-8.79-1.63-19-8.79C47.9-2.93,21.54-2.52,6.83,17.51c-10.96,14.91-9.81,45.37,11.44,66.41Z"/>
      <path class="cls-1" d="M122.28,82.49s11.24-29.02,11.24-44.55-16.55-24.73-27.59-24.73-28.4,13.08-42.1,7.97c0,0,11.03-2.86,21.05-11.65,10.01-8.79,55.99-18.39,60.69,25.95,0,0,.61,29.22-23.3,47Z"/>
      <path class="cls-1" d="M78.14,95.16s-16.96,1.43-21.46,28.4-8.58,38.83-18.19,38.83-10.63-16.96-10.63-16.96c0,0,4.7,11.65,10.83,11.65s1.84-71.11,39.44-61.92Z"/>
      <path class="cls-1" d="M80.49,101.8s.1,6.74,29.84,6.74,31.16-12.87,14.1-16.55c0,0,15.63,18.09-43.94,9.81Z"/>
      <path class="cls-1" d="M85.76,115.81s.08,5.45,24.11,5.45,25.19-10.41,11.4-13.38c0,0,12.64,14.62-35.51,7.93Z"/>
      <path class="cls-1" d="M90.05,127.73s.07,4.4,19.45,4.4,20.32-8.39,9.19-10.79c0,0,10.19,11.79-28.65,6.4Z"/>
      <path class="cls-1" d="M92.02,137.96s.06,3.69,16.33,3.69,17.06-7.05,7.72-9.06c0,0,8.56,9.9-24.05,5.37Z"/>
      <path class="cls-1" d="M94.08,148.65s.05,3.62,13.76,3.62,14.38-6.91,6.51-8.88c0,0,7.21,9.7-20.27,5.26Z"/>
      <path class="cls-1" d="M97.76,158.72s.04,3.87,10.55,3.87,11.02-7.39,4.98-9.5c0,0,5.53,10.38-15.53,5.63Z"/>
      <g>
        <path class="cls-1" d="M185.19,56.62c-1.4-.79-2.96-1.42-4.66-1.91-1.7-.49-3.4-.93-5.08-1.32s-3.23-.83-4.64-1.32c-1.4-.49-2.55-1.14-3.43-1.97-.88-.82-1.32-1.93-1.32-3.32,0-1.16.33-2.21.98-3.15.66-.94,1.69-1.69,3.12-2.25,1.42-.56,3.24-.84,5.45-.84,1.76,0,3.58.25,5.45.76,1.87.51,3.65,1.32,5.34,2.44l1.85-4.49c-1.65-1.12-3.6-1.98-5.84-2.58-2.25-.6-4.51-.9-6.8-.9-3.45,0-6.28.52-8.51,1.55-2.23,1.03-3.88,2.4-4.94,4.1-1.07,1.71-1.6,3.57-1.6,5.59s.43,3.81,1.29,5.14c.86,1.33,1.99,2.39,3.4,3.17s2.96,1.43,4.66,1.94c1.7.51,3.4.95,5.08,1.32,1.69.37,3.23.81,4.64,1.32s2.55,1.17,3.43,1.99c.88.82,1.32,1.91,1.32,3.26,0,1.16-.34,2.2-1.01,3.12-.67.92-1.72,1.64-3.15,2.16-1.42.52-3.28.79-5.56.79-2.51,0-4.93-.43-7.25-1.29-2.32-.86-4.23-1.95-5.73-3.26l-2.08,4.38c1.57,1.46,3.73,2.65,6.46,3.57,2.73.92,5.6,1.38,8.6,1.38,3.45,0,6.3-.51,8.57-1.55,2.27-1.03,3.94-2.4,5.03-4.1,1.09-1.7,1.63-3.55,1.63-5.53s-.43-3.75-1.29-5.06c-.86-1.31-1.99-2.36-3.4-3.15Z"/>
        <path class="cls-1" d="M230.76,41.47c-1.89-1.82-4.1-3.22-6.63-4.21-2.53-.99-5.29-1.49-8.29-1.49s-5.83.51-8.37,1.52c-2.55,1.01-4.76,2.43-6.63,4.24-1.87,1.82-3.33,3.94-4.38,6.38-1.05,2.44-1.57,5.09-1.57,7.98s.52,5.54,1.57,7.98c1.05,2.44,2.51,4.56,4.38,6.38,1.87,1.82,4.09,3.23,6.66,4.24,2.57,1.01,5.35,1.52,8.34,1.52s5.76-.5,8.29-1.49c2.53-.99,4.74-2.4,6.63-4.21,1.89-1.82,3.35-3.94,4.38-6.38,1.03-2.43,1.55-5.11,1.55-8.03s-.52-5.6-1.55-8.03c-1.03-2.43-2.49-4.56-4.38-6.38ZM229.92,61.9c-.77,1.84-1.84,3.44-3.2,4.8s-2.98,2.43-4.83,3.17c-1.85.75-3.87,1.12-6.04,1.12s-4.24-.37-6.1-1.12c-1.85-.75-3.47-1.81-4.86-3.17-1.39-1.37-2.46-2.97-3.23-4.8-.77-1.83-1.15-3.84-1.15-6.01s.38-4.18,1.15-6.01c.77-1.84,1.84-3.44,3.23-4.8,1.39-1.37,3.01-2.42,4.86-3.17,1.85-.75,3.89-1.12,6.1-1.12s4.19.37,6.04,1.12c1.85.75,3.46,1.81,4.83,3.17,1.37,1.37,2.43,2.97,3.2,4.8.77,1.84,1.15,3.84,1.15,6.01s-.38,4.18-1.15,6.01Z"/>
        <path class="cls-1" d="M272.76,58.36c0,4.38-.97,7.59-2.89,9.61-1.93,2.02-4.67,3.03-8.23,3.03s-6.25-1.01-8.18-3.03c-1.93-2.02-2.89-5.23-2.89-9.61v-22.14h-5.62v22.36c0,5.69,1.48,10.02,4.44,12.98,2.96,2.96,7.02,4.44,12.19,4.44s9.28-1.48,12.22-4.44c2.94-2.96,4.41-7.28,4.41-12.98v-22.36h-5.45v22.14Z"/>
        <polygon class="cls-1" points="283.32 41.11 296.81 41.11 296.81 75.55 302.37 75.55 302.37 41.11 315.86 41.11 315.86 36.22 283.32 36.22 283.32 41.11"/>
        <polygon class="cls-1" points="350.18 53.13 327.6 53.13 327.6 36.22 321.98 36.22 321.98 75.55 327.6 75.55 327.6 58.02 350.18 58.02 350.18 75.55 355.8 75.55 355.8 36.22 350.18 36.22 350.18 53.13"/>
        <polygon class="cls-1" points="373.22 57.96 392.94 57.96 392.94 53.19 373.22 53.19 373.22 41.11 395.36 41.11 395.36 36.22 367.6 36.22 367.6 75.55 396.15 75.55 396.15 70.66 373.22 70.66 373.22 57.96"/>
        <path class="cls-1" d="M417.1,36.22l-17.81,39.33h5.79l4.32-9.83h20.91l4.32,9.83h5.9l-17.87-39.33h-5.56ZM411.38,61.22l8.48-19.3,8.48,19.3h-16.96Z"/>
        <path class="cls-1" d="M468.37,56.62c-1.4-.79-2.96-1.42-4.66-1.91-1.7-.49-3.4-.93-5.08-1.32-1.69-.39-3.23-.83-4.64-1.32-1.4-.49-2.55-1.14-3.43-1.97-.88-.82-1.32-1.93-1.32-3.32,0-1.16.33-2.21.98-3.15.65-.94,1.69-1.69,3.12-2.25,1.42-.56,3.24-.84,5.45-.84,1.76,0,3.58.25,5.45.76s3.65,1.32,5.34,2.44l1.85-4.49c-1.65-1.12-3.6-1.98-5.84-2.58-2.25-.6-4.51-.9-6.8-.9-3.45,0-6.28.52-8.51,1.55-2.23,1.03-3.88,2.4-4.94,4.1-1.07,1.71-1.6,3.57-1.6,5.59s.43,3.81,1.29,5.14c.86,1.33,1.99,2.39,3.4,3.17,1.4.79,2.96,1.43,4.66,1.94,1.7.51,3.4.95,5.09,1.32,1.68.37,3.23.81,4.64,1.32,1.41.51,2.55,1.17,3.43,1.99.88.82,1.32,1.91,1.32,3.26,0,1.16-.34,2.2-1.01,3.12-.67.92-1.72,1.64-3.15,2.16-1.42.52-3.28.79-5.56.79-2.51,0-4.93-.43-7.25-1.29-2.32-.86-4.23-1.95-5.73-3.26l-2.08,4.38c1.57,1.46,3.73,2.65,6.46,3.57,2.73.92,5.6,1.38,8.6,1.38,3.45,0,6.3-.51,8.57-1.55,2.27-1.03,3.94-2.4,5.03-4.1,1.09-1.7,1.63-3.55,1.63-5.53s-.43-3.75-1.29-5.06c-.86-1.31-1.99-2.36-3.4-3.15Z"/>
        <polygon class="cls-1" points="475.03 41.11 488.52 41.11 488.52 75.55 494.08 75.55 494.08 41.11 507.56 41.11 507.56 36.22 475.03 36.22 475.03 41.11"/>
        <polygon class="cls-1" points="519.31 57.96 539.03 57.96 539.03 53.19 519.31 53.19 519.31 41.11 541.44 41.11 541.44 36.22 513.69 36.22 513.69 75.55 542.23 75.55 542.23 70.66 519.31 70.66 519.31 57.96"/>
        <path class="cls-1" d="M575.49,61.95c2.43-1.09,4.31-2.65,5.62-4.69,1.31-2.04,1.97-4.49,1.97-7.33s-.66-5.3-1.97-7.36c-1.31-2.06-3.18-3.63-5.62-4.72-2.44-1.09-5.38-1.63-8.82-1.63h-15.34v39.33h5.62v-11.97h9.72c.86,0,1.7-.03,2.5-.1l8.46,12.07h6.12l-9.33-13.17c.37-.13.73-.27,1.07-.43ZM566.5,58.81h-9.55v-17.7h9.55c3.6,0,6.32.77,8.18,2.3,1.85,1.54,2.78,3.71,2.78,6.52s-.93,4.99-2.78,6.55c-1.85,1.55-4.58,2.33-8.18,2.33Z"/>
        <polygon class="cls-1" points="620.39 36.22 620.39 65.53 596.79 36.22 592.18 36.22 592.18 75.55 597.8 75.55 597.8 46.24 621.4 75.55 626 75.55 626 36.22 620.39 36.22"/>
      </g>
      <g>
        <path class="cls-1" d="M168.31,95.84c-5.55,0-8.71,4.19-8.71,12.29s3,11.57,8.41,11.57,8.75-4.26,8.75-12.39-3.03-11.47-8.44-11.47ZM168.04,118.1c-4.22,0-6.26-3.13-6.26-10.01s2.21-10.65,6.54-10.65,6.23,3.06,6.23,9.91-2.21,10.76-6.5,10.76Z"/>
        <path class="cls-1" d="M188.67,108.33v-.07c2.76-.65,4.49-2.62,4.49-5.79,0-3.91-2.11-6.19-6.81-6.19h-5.72v22.98h2.01v-10.35h2.86c2.04,0,3.17.99,4.7,4.26l2.62,6.09h2.25l-3-6.64c-.95-2.08-1.84-3.44-3.4-4.29ZM186.05,107.38h-3.4v-9.6h3.4c3.74,0,5,1.97,5,4.77,0,3.2-1.94,4.83-5,4.83Z"/>
        <path class="cls-1" d="M203.65,96.28l-7.11,22.98h1.97l2.21-7.39h7.97l2.25,7.39h2.11l-7.05-22.98h-2.35ZM208.24,110.3h-7.08l1.74-5.79c.61-2.04,1.26-4.08,1.8-6.26h.07c.48,2.14,1.12,4.19,1.74,6.26l1.74,5.79Z"/>
        <polygon class="cls-1" points="218.42 96.28 216.42 96.28 216.42 119.26 227.65 119.26 227.82 117.66 218.42 117.66 218.42 96.28"/>
        <path class="cls-1" d="M239.22,101.66c0-2.45,1.33-4.15,4.32-4.15,1.7,0,3.13.44,4.36,1.06l-.27-1.5c-.95-.65-2.59-1.23-4.43-1.23-3.61,0-5.96,2.21-5.96,6.03,0,7.28,9.6,5.75,9.6,11.71,0,2.62-1.5,4.46-4.97,4.46-1.6,0-3.23-.37-4.7-1.06l.27,1.5c1.36.82,3.03,1.23,4.77,1.23,3.98,0,6.6-2.18,6.6-6.26,0-7.59-9.6-5.96-9.6-11.78Z"/>
        <path class="cls-1" d="M265.3,112.48c0,3.34-1.46,5.62-5.45,5.62-4.53,0-5.48-2.35-5.48-5.62v-16.2h-2.01v16.51c0,3.78,1.4,6.91,7.39,6.91,5.34,0,7.35-3,7.35-6.91v-16.51h-1.8v16.2Z"/>
        <path class="cls-1" d="M280.48,108.33v-.07c2.76-.65,4.49-2.62,4.49-5.79,0-3.91-2.11-6.19-6.81-6.19h-5.72v22.98h2.01v-10.35h2.86c2.04,0,3.17.99,4.7,4.26l2.62,6.09h2.25l-3-6.64c-.95-2.08-1.84-3.44-3.4-4.29ZM277.86,107.38h-3.4v-9.6h3.4c3.74,0,5,1.97,5,4.77,0,3.2-1.94,4.83-5,4.83Z"/>
        <path class="cls-1" d="M298.28,109.83l3.27.24v7.42c-1.06.37-2.31.61-3.54.61-5.68,0-7.62-3.81-7.62-10.18s2.28-10.35,7.66-10.35c1.74,0,3.47.41,4.97,1.23l-.31-1.5c-1.26-.88-3.2-1.46-5.31-1.46-6.09,0-9.19,4.66-9.19,12.02,0,6.74,2.11,11.85,9.6,11.85,1.91,0,4.08-.37,5.75-1.02v-10.18h-5.28v1.33Z"/>
        <polygon class="cls-1" points="310.27 108.09 318.71 108.09 318.71 106.49 310.27 106.49 310.27 97.88 319.36 97.88 319.19 96.28 308.26 96.28 308.26 119.26 319.87 119.26 320.04 117.66 310.27 117.66 310.27 108.09"/>
        <path class="cls-1" d="M332.09,108.33v-.07c2.76-.65,4.49-2.62,4.49-5.79,0-3.91-2.11-6.19-6.81-6.19h-5.72v22.98h2.01v-10.35h2.86c2.04,0,3.17.99,4.7,4.26l2.62,6.09h2.25l-3-6.64c-.95-2.08-1.84-3.44-3.4-4.29ZM329.47,107.38h-3.4v-9.6h3.4c3.74,0,5,1.97,5,4.77,0,3.2-1.94,4.83-5,4.83Z"/>
        <polygon class="cls-1" points="346.28 108.06 346.25 108.06 340.94 96.28 338.63 96.28 345.19 110.17 345.19 119.26 347.2 119.26 347.2 110.17 353.74 96.28 351.63 96.28 346.28 108.06"/>
        <path class="cls-1" d="M376.41,115.27v-7.73h4.02l.14-1.53h-4.15v-4.8l-1.84.41v4.39h-3.85c-2.76,0-4.66-1.29-4.66-4.36,0-2.76,1.5-4.19,4.39-4.19,1.4,0,2.59.27,3.98.85l-.2-1.4c-1.09-.65-2.66-1.09-4.32-1.09-3.57,0-5.85,1.97-5.85,5.65,0,3.03,1.33,4.56,3.47,5.24v.07c-2.38.37-4.19,2.18-4.19,5.99,0,4.19,1.67,6.91,6.2,6.91,1.91,0,3.78-.68,5.34-1.77h.03c.51,1.19,1.57,1.77,3.13,1.77.95,0,1.91-.31,2.52-.72l.2-1.36c-.68.27-1.43.44-2.08.44-1.67,0-2.28-.82-2.28-2.79ZM370.01,118.03c-3.27,0-4.66-2.01-4.66-5.41s1.53-5.07,5.04-5.07h4.12v7.76c0,.48.03.92.1,1.33-1.26.85-2.86,1.4-4.59,1.4Z"/>
        <path class="cls-1" d="M398.26,96.28h-6.23v22.98h6.23c6.64,0,9.84-4.43,9.84-11.68s-3-11.3-9.84-11.3ZM398.2,117.72h-4.15v-19.91h4.15c5.38,0,7.73,3.23,7.73,9.77s-2.45,10.14-7.73,10.14Z"/>
        <polygon class="cls-1" points="414.03 108.09 422.47 108.09 422.47 106.49 414.03 106.49 414.03 97.88 423.11 97.88 422.94 96.28 412.02 96.28 412.02 119.26 423.63 119.26 423.8 117.66 414.03 117.66 414.03 108.09"/>
        <path class="cls-1" d="M440.65,115.82h-.07c-.48-1.12-1.53-3.03-2.18-4.19l-8.44-15.35h-2.14v22.98h1.8v-19.51h.07c.37.89,1.26,2.52,1.84,3.57l8.85,15.93h2.08v-22.98h-1.8v19.54Z"/>
        <polygon class="cls-1" points="461.55 96.28 445.55 96.28 445.38 97.88 452.56 97.88 452.56 119.26 454.57 119.26 454.57 97.88 461.75 97.88 461.55 96.28"/>
        <path class="cls-1" d="M466.38,96.28l-7.11,22.98h1.97l2.21-7.39h7.97l2.25,7.39h2.11l-7.05-22.98h-2.35ZM470.98,110.3h-7.08l1.74-5.79c.61-2.04,1.26-4.08,1.8-6.26h.07c.48,2.14,1.12,4.19,1.74,6.26l1.74,5.79Z"/>
        <polygon class="cls-1" points="481.16 96.28 479.15 96.28 479.15 119.26 490.38 119.26 490.55 117.66 481.16 117.66 481.16 96.28"/>
        <rect class="cls-1" x="501.58" y="96.28" width="2.01" height="22.98"/>
        <path class="cls-1" d="M524.32,96.28l-4.73,12.8c-.48,1.29-.92,2.62-1.33,3.95h-.07c-.34-1.29-.85-2.66-1.33-3.95l-4.83-12.8h-2.31l-.61,22.98h1.8l.37-15.79c.03-1.19.03-2.38,0-3.74h.07c.44,1.4.88,2.55,1.33,3.64l4.49,11.88h1.94l4.39-11.91c.44-1.12.89-2.25,1.33-3.61h.07c-.03,1.33-.03,2.52,0,3.74l.44,15.79h1.97l-.68-22.98h-2.32Z"/>
        <path class="cls-1" d="M538.18,96.28h-5.34v22.98h2.01v-9.16h3.23c4.19,0,7.05-2.21,7.05-6.91,0-5-2.93-6.91-6.94-6.91ZM537.7,108.6h-2.86v-10.82h2.96c2.79,0,5.14,1.29,5.14,5.41,0,3.74-2.01,5.41-5.24,5.41Z"/>
        <polygon class="cls-1" points="551.04 96.28 549.04 96.28 549.04 119.26 560.27 119.26 560.44 117.66 551.04 117.66 551.04 96.28"/>
        <path class="cls-1" d="M568.41,96.28l-7.11,22.98h1.97l2.21-7.39h7.97l2.25,7.39h2.11l-7.05-22.98h-2.35ZM573,110.3h-7.08l1.74-5.79c.61-2.04,1.26-4.08,1.8-6.26h.07c.48,2.14,1.12,4.19,1.74,6.26l1.74,5.79Z"/>
        <path class="cls-1" d="M594,115.82h-.07c-.48-1.12-1.53-3.03-2.18-4.19l-8.44-15.35h-2.14v22.98h1.8v-19.51h.07c.37.89,1.26,2.52,1.84,3.57l8.85,15.93h2.08v-22.98h-1.8v19.54Z"/>
        <polygon class="cls-1" points="598.91 96.28 598.74 97.88 605.92 97.88 605.92 119.26 607.93 119.26 607.93 97.88 615.11 97.88 614.91 96.28 598.91 96.28"/>
        <path class="cls-1" d="M617.39,101.66c0-2.45,1.33-4.15,4.32-4.15,1.7,0,3.13.44,4.36,1.06l-.27-1.5c-.95-.65-2.59-1.23-4.43-1.23-3.61,0-5.96,2.21-5.96,6.03,0,7.28,9.6,5.75,9.6,11.71,0,2.62-1.5,4.46-4.97,4.46-1.6,0-3.23-.37-4.7-1.06l.27,1.5c1.36.82,3.03,1.23,4.77,1.23,3.98,0,6.6-2.18,6.6-6.26,0-7.59-9.6-5.96-9.6-11.78Z"/>
      </g>
    </g>
  </g>
</svg>